<svg width="28" height="28" viewBox="0 0 28 28" fill="none" xmlns="http://www.w3.org/2000/svg">
  <circle cx="14" cy="14" r="14" fill="#F5F5F5"/>
  <path d="M15.072 11.058c.02-1.212.885-2.233 2.068-2.462V6.226a5.058 5.058 0 0 0-3.159 1.591l-.092.105-.093-.105a5.058 5.058 0 0 0-3.159-1.591v2.37a2.542 2.542 0 0 1 2.069 2.455v6.081a2.542 2.542 0 0 1-2.069 2.455v2.37a5.058 5.058 0 0 0 3.159-1.591l.093-.105.092.105a5.058 5.058 0 0 0 3.159 1.591v-2.37a2.542 2.542 0 0 1-2.068-2.455v-6.074Z" fill="#101010"/>
</svg>
